<svg aria-hidden="true" style="position: absolute; width: 0; height: 0; overflow: hidden;" version="1.1" xmlns="http://www.w3.org/2000/svg" xmlns:xlink="http://www.w3.org/1999/xlink">
<defs>
<symbol id="icon-facebook" viewBox="0 0 32 32">
<path d="M19 6h5v-6h-5c-3.86 0-7 3.14-7 7v3h-4v6h4v16h6v-16h5l1-6h-6v-3c0-0.542 0.458-1 1-1z"></path>
</symbol>
<symbol id="icon-instagram" viewBox="0 0 32 32">
<path d="M16 2.881c4.275 0 4.781 0.019 6.462 0.094 1.563 0.069 2.406 0.331 2.969 0.55 0.744 0.288 1.281 0.638 1.837 1.194 0.563 0.563 0.906 1.094 1.2 1.838 0.219 0.563 0.481 1.412 0.55 2.969 0.075 1.688 0.094 2.194 0.094 6.463s-0.019 4.781-0.094 6.463c-0.069 1.563-0.331 2.406-0.55 2.969-0.288 0.744-0.637 1.281-1.194 1.837-0.563 0.563-1.094 0.906-1.837 1.2-0.563 0.219-1.413 0.481-2.969 0.55-1.688 0.075-2.194 0.094-6.463 0.094s-4.781-0.019-6.463-0.094c-1.563-0.069-2.406-0.331-2.969-0.55-0.744-0.288-1.281-0.637-1.838-1.194-0.563-0.563-0.906-1.094-1.2-1.837-0.219-0.563-0.481-1.413-0.55-2.969-0.075-1.688-0.094-2.194-0.094-6.463s0.019-4.781 0.094-6.463c0.069-1.563 0.331-2.406 0.55-2.969 0.288-0.744 0.638-1.281 1.194-1.838 0.563-0.563 1.094-0.906 1.838-1.2 0.563-0.219 1.412-0.481 2.969-0.55 1.681-0.075 2.188-0.094 6.463-0.094zM16 0c-4.344 0-4.887 0.019-6.594 0.094-1.7 0.075-2.869 0.35-3.881 0.744-1.056 0.412-1.95 0.956-2.837 1.85-0.894 0.888-1.438 1.781-1.85 2.831-0.394 1.019-0.669 2.181-0.744 3.881-0.075 1.713-0.094 2.256-0.094 6.6s0.019 4.887 0.094 6.594c0.075 1.7 0.35 2.869 0.744 3.881 0.413 1.056 0.956 1.95 1.85 2.837 0.887 0.887 1.781 1.438 2.831 1.844 1.019 0.394 2.181 0.669 3.881 0.744 1.706 0.075 2.25 0.094 6.594 0.094s4.888-0.019 6.594-0.094c1.7-0.075 2.869-0.35 3.881-0.744 1.050-0.406 1.944-0.956 2.831-1.844s1.438-1.781 1.844-2.831c0.394-1.019 0.669-2.181 0.744-3.881 0.075-1.706 0.094-2.25 0.094-6.594s-0.019-4.887-0.094-6.594c-0.075-1.7-0.35-2.869-0.744-3.881-0.394-1.063-0.938-1.956-1.831-2.844-0.887-0.887-1.781-1.438-2.831-1.844-1.019-0.394-2.181-0.669-3.881-0.744-1.712-0.081-2.256-0.1-6.6-0.1v0z"></path>
<path d="M16 7.781c-4.537 0-8.219 3.681-8.219 8.219s3.681 8.219 8.219 8.219 8.219-3.681 8.219-8.219c0-4.537-3.681-8.219-8.219-8.219zM16 21.331c-2.944 0-5.331-2.387-5.331-5.331s2.387-5.331 5.331-5.331c2.944 0 5.331 2.387 5.331 5.331s-2.387 5.331-5.331 5.331z"></path>
<path d="M26.462 7.456c0 1.060-0.859 1.919-1.919 1.919s-1.919-0.859-1.919-1.919c0-1.060 0.859-1.919 1.919-1.919s1.919 0.859 1.919 1.919z"></path>
</symbol>
<symbol id="icon-twitter" viewBox="0 0 32 32">
<path d="M32 7.075c-1.175 0.525-2.444 0.875-3.769 1.031 1.356-0.813 2.394-2.1 2.887-3.631-1.269 0.75-2.675 1.3-4.169 1.594-1.2-1.275-2.906-2.069-4.794-2.069-3.625 0-6.563 2.938-6.563 6.563 0 0.512 0.056 1.012 0.169 1.494-5.456-0.275-10.294-2.888-13.531-6.862-0.563 0.969-0.887 2.1-0.887 3.3 0 2.275 1.156 4.287 2.919 5.463-1.075-0.031-2.087-0.331-2.975-0.819 0 0.025 0 0.056 0 0.081 0 3.181 2.263 5.838 5.269 6.437-0.55 0.15-1.131 0.231-1.731 0.231-0.425 0-0.831-0.044-1.237-0.119 0.838 2.606 3.263 4.506 6.131 4.563-2.25 1.762-5.075 2.813-8.156 2.813-0.531 0-1.050-0.031-1.569-0.094 2.913 1.869 6.362 2.95 10.069 2.95 12.075 0 18.681-10.006 18.681-18.681 0-0.287-0.006-0.569-0.019-0.85 1.281-0.919 2.394-2.075 3.275-3.394z"></path>
</symbol>
<symbol id="icon-linkedin2" viewBox="0 0 32 32">
<path d="M12 12h5.535v2.837h0.079c0.77-1.381 2.655-2.837 5.464-2.837 5.842 0 6.922 3.637 6.922 8.367v9.633h-5.769v-8.54c0-2.037-0.042-4.657-3.001-4.657-3.005 0-3.463 2.218-3.463 4.509v8.688h-5.767v-18z"></path>
<path d="M2 12h6v18h-6v-18z"></path>
<path d="M8 7c0 1.657-1.343 3-3 3s-3-1.343-3-3c0-1.657 1.343-3 3-3s3 1.343 3 3z"></path>
</symbol>
<symbol id="icon-2" viewBox="0 0 25 32">
<path d="M10.532 1.806c0.142 0 0.294 0.013 0.446 0.026l0.044 0.004 0.045 0.003c0.762 0.055 1.506 0.172 2.134 0.326v-1.762l0.090 0.020c-0.742-0.191-1.51-0.319-2.339-0.378-0.288-0.022-0.595-0.036-0.91-0.044h-0.267c-1.603 0.006-3.157 0.218-4.51 0.582l-0.127 0.028c-1.69 0.433-3.285 1.101-4.665 1.921v17.475l-0.1 0.051c1.412-0.78 2.932-1.39 4.666-1.83l-0.139 0.031c1.262-0.331 2.572-0.541 3.971-0.619h0.052c0.217-0.011 0.433-0.017 0.655-0.018v-1.79l-0.014 0c-1.766 0.023-3.479 0.263-4.967 0.661-0.602 0.156-1.185 0.326-1.731 0.513l-0.623 0.212v-13.626l0.266-0.128-0.104 0.045c1.994-0.964 4.2-1.558 6.576-1.696l-0.001 0c0.010-0.001 0.019-0.001 0.029-0.001s0.020 0 0.028 0.001c0.247-0.012 0.497-0.018 0.741-0.018h0.28c0.129 0.003 0.258 0.006 0.388 0.014h0.084zM13.633 3.607c0.391 0.030 0.796 0.044 1.205 0.044 1.689-0.007 3.324-0.228 4.881-0.639l-0.135 0.030c1.734-0.442 3.252-1.052 4.665-1.831l-0.101 0.051v17.163c-1.379 0.819-2.975 1.487-4.664 1.921l-0.127 0.028c-1.353 0.363-2.908 0.574-4.511 0.581h-0.004c-0.033 0-0.072 0-0.111 0-1.177 0-2.319-0.147-3.409-0.425l0.095 0.021v-17.275c0.265 0.062 0.537 0.118 0.814 0.164 0.455 0.077 0.934 0.133 1.401 0.167zM22.367 3.74l-0.623 0.209c-0.572 0.193-1.151 0.365-1.731 0.518-1.551 0.415-3.332 0.657-5.169 0.663h-0.004c-0.406 0-0.78-0.011-1.141-0.034l-0.497-0.033v14.017l0.426 0.037c0.395 0.035 0.803 0.052 1.214 0.052 1.45-0.006 2.853-0.198 4.189-0.553l-0.116 0.026c1.221-0.31 2.281-0.702 3.285-1.189l-0.102 0.044 0.266-0.128v-13.63z"></path>
<path d="M1.684 25.977c-0.167-0.173-0.401-0.281-0.661-0.281-0.011 0-0.023 0-0.034 0.001l0.002-0c-0.004-0-0.009-0-0.014-0-0.139 0-0.272 0.028-0.393 0.078l0.007-0.003c-0.237 0.095-0.42 0.28-0.51 0.512l-0.002 0.006c-0.049 0.123-0.073 0.254-0.071 0.386v2.335c-0.006 0.164 0.026 0.328 0.092 0.479 0.055 0.12 0.135 0.226 0.234 0.313 0.093 0.078 0.202 0.135 0.32 0.166 0.114 0.031 0.231 0.048 0.349 0.048 0.13 0.001 0.258-0.026 0.377-0.081 0.351-0.156 0.591-0.5 0.591-0.901v-0.261h-0.611v0.208c0 0.004 0 0.009 0 0.014 0 0.070-0.013 0.136-0.037 0.198l0.001-0.004c-0.021 0.052-0.051 0.095-0.089 0.132l-0 0c-0.070 0.054-0.159 0.088-0.255 0.089h-0c-0.011 0.001-0.023 0.002-0.036 0.002-0.103 0-0.194-0.050-0.25-0.127l-0.001-0.001c-0.051-0.082-0.082-0.182-0.082-0.289 0-0.008 0-0.016 0.001-0.024l-0 0.001v-2.177c-0.004-0.121 0.022-0.24 0.075-0.349 0.056-0.087 0.153-0.143 0.262-0.143 0.013 0 0.025 0.001 0.038 0.002l-0.001-0c0.003-0 0.007-0 0.012-0 0.107 0 0.201 0.052 0.26 0.131l0.001 0.001c0.063 0.082 0.101 0.187 0.101 0.3 0 0.005-0 0.009-0 0.014v-0.001 0.202h0.604v-0.238c0-0.003 0-0.007 0-0.011 0-0.143-0.027-0.28-0.077-0.405l0.003 0.007c-0.048-0.128-0.117-0.237-0.205-0.329l0 0zM5.31 25.951c-0.186-0.158-0.429-0.255-0.694-0.257h-0c-0.124 0-0.248 0.023-0.364 0.066-0.252 0.090-0.451 0.276-0.557 0.511l-0.002 0.006c-0.062 0.142-0.092 0.297-0.089 0.452v2.239c-0.004 0.158 0.026 0.314 0.089 0.458 0.055 0.121 0.135 0.228 0.236 0.313 0.094 0.086 0.203 0.154 0.322 0.197 0.117 0.043 0.24 0.065 0.364 0.066 0.267-0.001 0.51-0.1 0.695-0.264l-0.001 0.001c0.097-0.087 0.176-0.194 0.23-0.313 0.063-0.144 0.093-0.301 0.089-0.458v-2.239c0-0.006 0-0.013 0-0.020 0-0.156-0.033-0.305-0.092-0.439l0.003 0.007c-0.057-0.128-0.135-0.237-0.23-0.327l-0-0zM5.025 28.969c0.001 0.010 0.002 0.023 0.002 0.035 0 0.114-0.047 0.216-0.123 0.289l-0 0c-0.077 0.065-0.178 0.105-0.287 0.105s-0.21-0.040-0.288-0.105l0.001 0.001c-0.076-0.073-0.123-0.175-0.123-0.289 0-0.012 0.001-0.025 0.002-0.037l-0 0.002v-2.239c-0.001-0.010-0.001-0.022-0.001-0.034 0-0.113 0.047-0.216 0.123-0.289l0-0c0.077-0.065 0.178-0.105 0.287-0.105s0.21 0.040 0.288 0.105l-0.001-0.001c0.076 0.073 0.123 0.175 0.123 0.289 0 0.012-0.001 0.025-0.002 0.037l0-0.002v2.24zM10.072 29.969v-4.24h-0.586l-0.771 2.244h-0.010l-0.777-2.244h-0.58v4.239h0.606v-2.578h0.011l0.593 1.823h0.302l0.598-1.823h0.010v2.578h0.606zM13.513 26.027c-0.093-0.105-0.211-0.185-0.342-0.232-0.124-0.042-0.267-0.066-0.416-0.066-0.008 0-0.016 0-0.024 0l0.001-0h-0.9v4.24h0.604v-1.656h0.311c0.189 0.009 0.376-0.031 0.545-0.116 0.139-0.078 0.251-0.188 0.329-0.32l0.002-0.004c0.070-0.113 0.117-0.238 0.138-0.369 0.021-0.133 0.033-0.287 0.033-0.444 0-0.013-0-0.027-0-0.040l0 0.002c0.006-0.203-0.014-0.407-0.059-0.606-0.043-0.153-0.12-0.284-0.223-0.39l0 0zM13.201 27.319c-0.003 0.081-0.023 0.157-0.057 0.224l0.001-0.003c-0.035 0.065-0.089 0.116-0.154 0.147l-0.002 0.001c-0.075 0.034-0.162 0.054-0.254 0.054-0.011 0-0.022-0-0.033-0.001l0.002 0h-0.276v-1.441h0.311c0.009-0 0.019-0.001 0.029-0.001 0.088 0 0.172 0.020 0.247 0.055l-0.004-0.002c0.062 0.036 0.111 0.090 0.141 0.154l0.001 0.002c0.033 0.074 0.051 0.155 0.053 0.236v0.282c0 0.098 0.006 0.201 0 0.291h-0.006zM16.374 25.729h-0.495l-0.934 4.24h0.604l0.177-0.911h0.823l0.178 0.911h0.604l-0.958-4.24zM15.817 28.481l0.297-1.537h0.011l0.295 1.537h-0.604zM20.277 28.283h-0.011l-0.912-2.554h-0.581v4.24h0.604v-2.55h0.012l0.923 2.549h0.568v-4.239h-0.604v2.554zM23.968 25.729l-0.486 1.686h-0.012l-0.486-1.686h-0.639l0.83 2.448v1.791h0.604v-1.791l0.83-2.447h-0.64zM0 31.166h0.291v0.817h0.198v-0.817h0.289v-0.167h-0.778v0.168zM2.447 30.998l-0.382 0.985h0.21l0.081-0.224h0.392l0.084 0.224h0.215l-0.391-0.985h-0.21zM2.417 31.593l0.134-0.365 0.134 0.365h-0.268zM4.866 31.62h0.228v0.127c-0.063 0.051-0.145 0.082-0.234 0.083h-0c-0.004 0-0.009 0-0.014 0-0.079 0-0.149-0.037-0.195-0.094l-0-0c-0.046-0.065-0.073-0.147-0.073-0.234 0-0.008 0-0.016 0.001-0.023l-0 0.001c0-0.219 0.095-0.329 0.283-0.329 0.006-0.001 0.014-0.001 0.021-0.001 0.097 0 0.178 0.067 0.201 0.157l0 0.001 0.194-0.038c-0.042-0.192-0.18-0.289-0.417-0.289-0.004-0-0.008-0-0.013-0-0.127 0-0.244 0.048-0.331 0.127l0-0c-0.088 0.087-0.143 0.208-0.143 0.342 0 0.013 0 0.026 0.002 0.038l-0-0.002c-0 0.007-0 0.015-0 0.023 0 0.132 0.048 0.254 0.127 0.347l-0.001-0.001c0.087 0.090 0.209 0.146 0.343 0.146 0.011 0 0.021-0 0.032-0.001l-0.001 0c0.005 0 0.010 0 0.016 0 0.155 0 0.296-0.060 0.402-0.157l-0 0v-0.388h-0.426v0.166zM7.337 30.998h-0.199v0.985h0.689v-0.167h-0.49v-0.817zM9.426 30.998h-0.199v0.985h0.199v-0.985zM11.469 31.655l-0.404-0.657h-0.193v0.985h0.185v-0.643l0.396 0.643h0.198v-0.985h-0.182v0.658zM13.315 31.549h0.49v-0.167h-0.49v-0.215h0.527v-0.168h-0.727v0.985h0.747v-0.167h-0.548v-0.266zM17.792 31.386h-0.388v-0.388h-0.197v0.984h0.197v-0.431h0.388v0.431h0.198v-0.985h-0.198v0.388zM19.649 31.549h0.492v-0.167h-0.492v-0.215h0.529v-0.168h-0.726v0.985h0.746v-0.167h-0.548v-0.266zM22.168 31.55c0.171-0.027 0.258-0.118 0.258-0.274 0.001-0.008 0.002-0.018 0.002-0.028 0-0.079-0.038-0.148-0.098-0.191l-0.001-0c-0.073-0.037-0.159-0.059-0.25-0.059-0.014 0-0.027 0-0.040 0.001l0.002-0h-0.417v0.984h0.198v-0.412h0.039c0.005-0 0.010-0 0.016-0 0.039 0 0.076 0.008 0.109 0.023l-0.002-0.001c0.029 0.018 0.053 0.042 0.070 0.072l0.215 0.313h0.236l-0.12-0.192c-0.054-0.096-0.128-0.175-0.215-0.235l-0.002-0.002zM21.969 31.413h-0.146v-0.247h0.156c0.012-0.001 0.027-0.002 0.042-0.002 0.057 0 0.111 0.009 0.163 0.026l-0.004-0.001c0.026 0.024 0.043 0.058 0.043 0.096 0 0.042-0.020 0.080-0.052 0.104l-0 0c-0.049 0.016-0.106 0.025-0.164 0.025-0.013 0-0.026-0-0.039-0.001l0.002 0zM24.068 31.549h0.49v-0.167h-0.49v-0.215h0.529v-0.168h-0.729v0.985h0.747v-0.167h-0.548v-0.266z"></path>
</symbol>
<symbol id="icon-3" viewBox="0 0 34 32">
<path d="M5.643 31.315c0.012 0 0.024 0.003 0.035 0.008s0.021 0.011 0.030 0.018l-0-0 0.166 0.158c-0.13 0.129-0.289 0.232-0.468 0.302-0.184 0.069-0.397 0.109-0.62 0.109-0.015 0-0.030-0-0.045-0.001l0.002 0c-0.213 0.004-0.425-0.030-0.622-0.101-0.182-0.066-0.338-0.163-0.47-0.286l0.001 0.001c-0.128-0.121-0.231-0.268-0.301-0.432l-0.003-0.008c-0.067-0.162-0.106-0.35-0.106-0.548 0-0.006 0-0.012 0-0.018v0.001c-0-0.009-0-0.019-0-0.029 0-0.388 0.168-0.737 0.436-0.977l0.001-0.001c0.142-0.124 0.312-0.222 0.498-0.287 0.205-0.069 0.423-0.103 0.642-0.101 0.012-0 0.026-0 0.040-0 0.199 0 0.39 0.034 0.568 0.096l-0.012-0.004c0.165 0.062 0.316 0.149 0.447 0.255l-0.139 0.169c-0.010 0.012-0.022 0.022-0.035 0.030l-0.001 0c-0.014 0.008-0.031 0.013-0.048 0.013-0.003 0-0.005-0-0.008-0l0 0c-0.023-0.001-0.043-0.007-0.062-0.018l0.001 0-0.074-0.046-0.104-0.058c-0.095-0.046-0.205-0.081-0.321-0.1l-0.007-0.001c-0.069-0.012-0.149-0.018-0.23-0.018-0.006 0-0.013 0-0.019 0h0.001c-0.005-0-0.010-0-0.015-0-0.16 0-0.313 0.028-0.455 0.079l0.009-0.003c-0.14 0.049-0.26 0.122-0.363 0.214l0.001-0.001c-0.104 0.098-0.183 0.213-0.235 0.339-0.054 0.128-0.085 0.276-0.085 0.432 0 0.006 0 0.011 0 0.017v-0.001c-0 0.006-0 0.012-0 0.019 0 0.157 0.031 0.307 0.088 0.444l-0.003-0.008c0.051 0.125 0.13 0.239 0.231 0.338 0.095 0.091 0.213 0.164 0.345 0.21 0.136 0.049 0.281 0.073 0.427 0.072 0.085 0.001 0.17-0.004 0.254-0.014 0.211-0.022 0.4-0.106 0.55-0.234l-0.001 0.001c0.021-0.017 0.049-0.028 0.078-0.029h0zM10.441 30.517c0 0.005 0 0.011 0 0.017 0 0.197-0.041 0.384-0.116 0.553l0.003-0.009c-0.074 0.172-0.18 0.317-0.311 0.435l-0.001 0.001c-0.138 0.123-0.302 0.22-0.481 0.283l-0.010 0.003c-0.189 0.064-0.406 0.101-0.632 0.101s-0.443-0.037-0.646-0.105l0.014 0.004c-0.188-0.067-0.351-0.165-0.489-0.288l0.001 0.001c-0.133-0.12-0.24-0.267-0.313-0.432l-0.003-0.008c-0.071-0.166-0.112-0.359-0.112-0.562s0.041-0.396 0.116-0.572l-0.004 0.010c0.071-0.165 0.178-0.315 0.316-0.442 0.139-0.121 0.305-0.215 0.488-0.277 0.188-0.065 0.406-0.103 0.632-0.103s0.443 0.038 0.646 0.107l-0.014-0.004c0.184 0.065 0.351 0.162 0.49 0.286 0.137 0.126 0.244 0.274 0.314 0.435 0.077 0.181 0.115 0.373 0.112 0.565zM10.005 30.517c0-0.007 0-0.015 0-0.024 0-0.154-0.029-0.301-0.082-0.436l0.003 0.008c-0.101-0.26-0.308-0.459-0.566-0.548l-0.007-0.002c-0.137-0.047-0.295-0.074-0.459-0.074s-0.322 0.027-0.469 0.077l0.010-0.003c-0.136 0.049-0.254 0.121-0.352 0.214l0-0c-0.097 0.092-0.174 0.205-0.223 0.331l-0.002 0.006c-0.050 0.134-0.079 0.289-0.079 0.451s0.029 0.317 0.082 0.46l-0.003-0.009c0.101 0.261 0.309 0.46 0.569 0.547l0.007 0.002c0.296 0.097 0.622 0.097 0.918 0 0.133-0.046 0.253-0.119 0.35-0.211 0.1-0.098 0.175-0.213 0.222-0.338 0.056-0.145 0.082-0.298 0.079-0.451zM13.715 30.99l0.043 0.101c0.017-0.036 0.031-0.069 0.048-0.101 0.019-0.039 0.037-0.072 0.056-0.103l-0.002 0.004 1.061-1.677c0.021-0.029 0.040-0.047 0.061-0.053s0.047-0.009 0.073-0.009c0.005 0 0.010 0 0.015 0l-0.001-0h0.314v2.728h-0.372v-2.090c-0.001-0.014-0.002-0.031-0.002-0.047s0.001-0.033 0.002-0.049l-0 0.002-1.069 1.701c-0.015 0.026-0.036 0.047-0.062 0.061l-0.001 0c-0.026 0.014-0.057 0.023-0.090 0.023-0.001 0-0.001 0-0.002 0h-0.060c-0.001 0-0.001 0-0.002 0-0.033 0-0.063-0.008-0.090-0.023l0.001 0c-0.026-0.014-0.047-0.035-0.061-0.061l-0-0.001-1.099-1.711v2.189h-0.359v-2.722h0.313c0.004-0 0.009-0 0.015-0 0.026 0 0.051 0.003 0.075 0.010l-0.002-0c0.026 0.011 0.046 0.030 0.058 0.053l1.084 1.678c0.020 0.028 0.038 0.060 0.053 0.094l0.001 0.004zM17.71 30.855v1.021h-0.414v-2.723h0.926c0.175-0.003 0.349 0.018 0.517 0.059 0.134 0.034 0.259 0.091 0.366 0.17 0.089 0.070 0.159 0.16 0.205 0.262l0.002 0.004c0.050 0.111 0.073 0.23 0.071 0.349 0 0.005 0 0.011 0 0.017 0 0.246-0.117 0.465-0.299 0.603l-0.002 0.001c-0.107 0.082-0.232 0.143-0.368 0.18-0.14 0.040-0.301 0.064-0.468 0.064-0.012 0-0.023-0-0.035-0l-0.501-0.008zM17.71 30.562h0.503c0.109 0.002 0.218-0.013 0.322-0.041 0.089-0.026 0.166-0.066 0.234-0.119l-0.002 0.001c0.117-0.097 0.191-0.241 0.191-0.404 0-0.002 0-0.004-0-0.007v0c0.001-0.009 0.001-0.019 0.001-0.029 0-0.070-0.015-0.136-0.043-0.195l0.001 0.003c-0.035-0.074-0.084-0.136-0.144-0.185l-0.001-0.001c-0.139-0.093-0.31-0.149-0.493-0.149-0.023 0-0.046 0.001-0.069 0.003l0.003-0h-0.503v1.122zM23.294 31.88h-0.328c-0.002 0-0.004 0-0.006 0-0.032 0-0.061-0.009-0.086-0.026l0.001 0c-0.023-0.016-0.042-0.037-0.054-0.062l-0-0.001-0.282-0.658h-1.419l-0.293 0.658c-0.026 0.053-0.079 0.088-0.141 0.088-0.001 0-0.003-0-0.004-0h-0.329l1.246-2.728h0.432l1.263 2.728zM21.237 30.867h1.172l-0.494-1.11c-0.038-0.084-0.069-0.169-0.094-0.256l-0.048 0.142c-0.014 0.043-0.030 0.084-0.046 0.116l-0.49 1.108zM25.089 29.166c0.024 0.011 0.046 0.028 0.062 0.048l1.818 2.056v-2.117h0.372v2.728h-0.207c-0.001 0-0.003 0-0.005 0-0.029 0-0.057-0.006-0.082-0.017l0.001 0c-0.026-0.013-0.048-0.030-0.066-0.050l-0-0-1.816-2.054c0.001 0.014 0.001 0.030 0.001 0.047s-0.001 0.033-0.002 0.049l0-0.002v2.027h-0.372v-2.728h0.22c0.025 0 0.051 0.005 0.075 0.013zM30.402 30.795v1.083h-0.415v-1.082l-1.149-1.643h0.372c0.003-0 0.006-0 0.009-0 0.030 0 0.057 0.009 0.081 0.023l-0.001-0c0.023 0.018 0.042 0.039 0.056 0.062l0.718 1.060c0.029 0.046 0.054 0.087 0.075 0.126s0.038 0.078 0.053 0.115l0.053-0.117c0.021-0.043 0.044-0.084 0.071-0.124l0.709-1.067c0.015-0.022 0.033-0.041 0.053-0.058l0-0c0.023-0.017 0.051-0.027 0.082-0.027 0.003 0 0.006 0 0.008 0l-0-0h0.376l-1.15 1.65zM13.509 24.576c0.181 0.020 0.363 0.036 0.549 0.050 2.803-1.090 5.174-2.872 6.818-5.126s2.485-4.878 2.421-7.546l-3.090-2.683c0.629 2.84 0.335 5.775-0.848 8.478s-3.208 5.067-5.849 6.827z"></path>
<path d="M12.407 24.451l0.083 0.015c2.822-1.755 4.973-4.203 6.176-7.031s1.402-5.904 0.571-8.83l-4.4-3.822c1.779 3.142 2.496 6.659 2.065 10.141-0.43 3.482-1.989 6.786-4.495 9.528zM27.328 15.106c-0.747 2.931-2.563 5.574-5.177 7.538-0.714 0.543-1.519 1.053-2.367 1.49l-0.092 0.043c2.129-0.543 4.085-1.504 5.718-2.808s2.901-2.917 3.703-4.714l-1.784-1.549z"></path>
<path  d="M26.628 14.674l-2.54-2.207c-0.049 2.517-0.872 4.976-2.385 7.122s-3.66 3.902-6.217 5.084h0.012c0.57 0 1.139-0.030 1.705-0.088 2.39-0.848 4.502-2.197 6.146-3.926s2.771-3.785 3.278-5.985zM12.774 3.17l-3.031-2.636c-2.709 0.91-5.039 2.509-6.686 4.588s-2.531 4.542-2.539 7.066c0.010 2.789 1.090 5.495 3.070 7.69 1.979 2.194 4.744 3.754 7.858 4.43 2.779-2.942 4.407-6.578 4.646-10.379s-0.924-7.57-3.319-10.758zM33.63 14.268c-0.011-3.308-1.528-6.478-4.221-8.818s-6.342-3.658-10.15-3.668c-0.008 0-0.018-0-0.028-0-1.831 0-3.59 0.305-5.231 0.867l0.114-0.034 18.556 16.122c0.605-1.313 0.958-2.849 0.96-4.468v-0.001z"></path>
</symbol>
<symbol id="icon-4" viewBox="0 0 65 32">
<path  d="M10.016 9.983h-0.002c-1.827 0-3.308 1.316-3.308 2.94v0.002c0 1.624 1.481 2.94 3.308 2.94h0.002c1.827 0 3.308-1.317 3.308-2.94v-0.002c0-1.624-1.481-2.941-3.308-2.941zM34.434 9.044c-0.005-2.255-1.016-4.418-2.81-6.012s-4.226-2.493-6.763-2.498c-2.539 0.004-4.972 0.902-6.767 2.497s-2.806 3.757-2.811 6.013v12.437s19.15-1.896 19.152-12.434v-0.002zM0 25.562c0.005 1.57 0.709 3.073 1.957 4.183s2.94 1.735 4.706 1.739c1.765-0.005 3.457-0.63 4.706-1.739s1.952-2.613 1.957-4.181v-8.654s-13.324 1.32-13.324 8.652zM6.662 27.112c-0.345 0-0.682-0.091-0.969-0.261-0.279-0.164-0.499-0.401-0.638-0.686l-0.004-0.009c-0.084-0.173-0.132-0.377-0.132-0.592 0-0.107 0.012-0.212 0.035-0.312l-0.002 0.009c0.067-0.301 0.233-0.578 0.477-0.794 0.243-0.214 0.547-0.364 0.882-0.423l0.011-0.002c0.103-0.019 0.221-0.030 0.341-0.030 0.239 0 0.469 0.043 0.68 0.122l-0.013-0.004c0.319 0.117 0.592 0.316 0.783 0.571s0.294 0.555 0.294 0.861c0.001 0.204-0.043 0.407-0.131 0.596-0.094 0.198-0.221 0.366-0.376 0.503l-0.002 0.001c-0.162 0.145-0.354 0.259-0.567 0.338-0.199 0.075-0.428 0.119-0.668 0.119-0 0-0.001 0-0.001 0h0v-0.006zM18.842 24.336v3.25h-0.67v-3.251h0.67zM20.137 25.725v0.522h-1.478v-0.522h1.478zM20.293 24.336v0.525h-1.634v-0.525h1.634zM23.351 25.886v0.154c0 0.247-0.034 0.469-0.101 0.665-0.064 0.194-0.161 0.361-0.285 0.504l0.002-0.002c-0.122 0.137-0.267 0.242-0.437 0.315-0.168 0.073-0.355 0.11-0.56 0.11s-0.391-0.037-0.561-0.11c-0.172-0.076-0.318-0.182-0.436-0.314l-0.001-0.001c-0.124-0.141-0.222-0.309-0.285-0.492l-0.003-0.010c-0.064-0.19-0.101-0.408-0.101-0.636 0-0.010 0-0.020 0-0.030l-0 0.002v-0.155c0-0.248 0.034-0.47 0.101-0.665s0.162-0.363 0.283-0.502c0.119-0.134 0.265-0.241 0.429-0.314l0.008-0.003c0.17-0.073 0.357-0.109 0.561-0.109 0.206 0 0.392 0.036 0.56 0.109 0.17 0.073 0.315 0.179 0.437 0.317 0.123 0.139 0.219 0.306 0.286 0.503 0.069 0.194 0.103 0.416 0.103 0.665zM22.674 26.040v-0.158c0-0.173-0.015-0.325-0.046-0.456-0.028-0.125-0.076-0.236-0.141-0.334l0.002 0.004c-0.057-0.084-0.132-0.152-0.22-0.199l-0.003-0.002c-0.084-0.044-0.184-0.069-0.29-0.069-0.004 0-0.008 0-0.012 0h0.001c-0.114 0-0.213 0.023-0.302 0.069-0.090 0.049-0.165 0.117-0.22 0.199l-0.001 0.002c-0.061 0.095-0.108 0.206-0.134 0.324l-0.001 0.007c-0.030 0.129-0.047 0.278-0.047 0.43 0 0.009 0 0.018 0 0.027v-0.001 0.158c0 0.171 0.015 0.322 0.047 0.455 0.030 0.131 0.077 0.242 0.138 0.333 0.057 0.085 0.132 0.153 0.22 0.201l0.003 0.002c0.088 0.046 0.188 0.069 0.302 0.069s0.213-0.023 0.301-0.069c0.091-0.049 0.165-0.118 0.22-0.201l0.001-0.002c0.061-0.096 0.108-0.207 0.135-0.326l0.001-0.007c0.030-0.133 0.046-0.284 0.046-0.455zM25.525 26.736c0-0.002 0-0.004 0-0.007 0-0.054-0.010-0.105-0.028-0.152l0.001 0.003c-0.020-0.052-0.052-0.096-0.094-0.129l-0.001-0c-0.056-0.046-0.12-0.086-0.188-0.117l-0.005-0.002c-0.087-0.040-0.194-0.081-0.304-0.115l-0.019-0.005c-0.171-0.055-0.31-0.109-0.445-0.17l0.026 0.010c-0.133-0.060-0.247-0.13-0.352-0.211l0.004 0.003c-0.096-0.076-0.175-0.169-0.234-0.274l-0.002-0.005c-0.054-0.102-0.085-0.224-0.085-0.353 0-0.006 0-0.011 0-0.017v0.001c-0-0.003-0-0.007-0-0.010 0-0.131 0.033-0.254 0.091-0.362l-0.002 0.004c0.059-0.112 0.143-0.207 0.25-0.286 0.107-0.081 0.234-0.142 0.379-0.185 0.148-0.043 0.309-0.065 0.485-0.065 0.24 0 0.449 0.043 0.627 0.13s0.317 0.204 0.415 0.354c0.1 0.151 0.15 0.322 0.15 0.516h-0.665c0-0.003 0-0.007 0-0.010 0-0.088-0.023-0.171-0.062-0.242l0.001 0.003c-0.041-0.074-0.102-0.133-0.176-0.17l-0.002-0.001c-0.081-0.040-0.176-0.064-0.277-0.064-0.008 0-0.016 0-0.023 0l0.001-0c-0.007-0-0.014-0-0.022-0-0.096 0-0.188 0.020-0.272 0.055l0.005-0.002c-0.072 0.030-0.131 0.078-0.174 0.14l-0.001 0.001c-0.036 0.054-0.058 0.12-0.058 0.192 0 0.002 0 0.003 0 0.005v-0c0 0.055 0.014 0.105 0.040 0.149 0.034 0.050 0.075 0.091 0.123 0.124l0.002 0.001c0.055 0.039 0.122 0.076 0.203 0.11s0.174 0.068 0.28 0.101c0.177 0.053 0.332 0.114 0.466 0.181 0.136 0.067 0.248 0.142 0.339 0.226s0.16 0.178 0.206 0.283 0.069 0.226 0.069 0.36c0 0.009 0.001 0.020 0.001 0.031 0 0.259-0.126 0.488-0.32 0.63l-0.002 0.002c-0.104 0.078-0.229 0.136-0.373 0.176-0.14 0.039-0.3 0.061-0.466 0.061-0.006 0-0.013-0-0.019-0h0.001c-0 0-0 0-0.001 0-0.169 0-0.332-0.023-0.488-0.066l0.013 0.003c-0.162-0.045-0.304-0.111-0.432-0.198l0.005 0.003c-0.125-0.086-0.227-0.197-0.301-0.326l-0.003-0.005c-0.076-0.134-0.114-0.293-0.114-0.475h0.672c0 0.101 0.015 0.187 0.047 0.257 0.030 0.068 0.074 0.126 0.13 0.169l0.001 0.001c0.058 0.043 0.127 0.075 0.202 0.093l0.004 0.001c0.080 0.019 0.168 0.029 0.264 0.029 0.007 0 0.015 0 0.023 0 0.094 0 0.185-0.018 0.267-0.052l-0.005 0.002c0.132-0.053 0.223-0.18 0.223-0.328 0-0.002 0-0.003-0-0.005v0zM28.103 24.336v3.25h-0.667v-3.251h0.667zM29.103 24.336v0.525h-2.651v-0.525h2.651zM31.666 27.064v0.523h-1.73v-0.523h1.73zM30.155 24.336v3.25h-0.67v-3.251h0.67zM31.44 25.66v0.509h-1.504v-0.509h1.504zM31.663 24.336v0.525h-1.727v-0.525h1.727zM32.056 24.336h1.211c0.249 0 0.462 0.038 0.642 0.112s0.318 0.184 0.414 0.33c0.097 0.146 0.145 0.325 0.145 0.538 0 0.174-0.029 0.324-0.088 0.45-0.059 0.125-0.143 0.228-0.246 0.309l-0.002 0.001c-0.107 0.081-0.23 0.148-0.364 0.193l-0.009 0.003-0.212 0.112h-1.054l-0.005-0.523h0.784c0.006 0 0.014 0 0.022 0 0.098 0 0.191-0.023 0.274-0.064l-0.004 0.002c0.075-0.039 0.135-0.099 0.173-0.172l0.001-0.002c0.038-0.072 0.060-0.157 0.060-0.247 0-0.004-0-0.008-0-0.013v0.001c0-0.005 0-0.010 0-0.016 0-0.093-0.021-0.18-0.060-0.258l0.002 0.003c-0.039-0.076-0.1-0.136-0.175-0.173l-0.002-0.001c-0.081-0.039-0.175-0.061-0.276-0.061-0.008 0-0.015 0-0.023 0l0.001-0h-0.542v2.726h-0.67v-3.251zM33.874 27.586l-0.741-1.448 0.708-0.005 0.75 1.422v0.030h-0.716zM37.389 26.428h-0.828v-0.523h0.828c0.008 0 0.017 0.001 0.027 0.001 0.104 0 0.202-0.023 0.29-0.065l-0.004 0.002c0.077-0.040 0.138-0.102 0.176-0.177l0.001-0.002c0.035-0.078 0.055-0.168 0.055-0.263s-0.020-0.186-0.057-0.267l0.002 0.004c-0.038-0.084-0.099-0.153-0.175-0.2l-0.002-0.001c-0.083-0.048-0.182-0.077-0.288-0.077-0.009 0-0.017 0-0.026 0.001l0.001-0h-0.596v2.726h-0.67v-3.25h1.266c0.254 0 0.472 0.046 0.654 0.139 0.183 0.091 0.323 0.216 0.42 0.377s0.145 0.344 0.145 0.552c0 0.21-0.048 0.391-0.145 0.545-0.097 0.152-0.236 0.271-0.419 0.354s-0.4 0.125-0.655 0.125zM41.25 27.064v0.523h-1.73v-0.523h1.73zM39.739 24.336v3.25h-0.67v-3.251h0.67zM41.025 25.66v0.509h-1.504v-0.509h1.504zM41.248 24.336v0.525h-1.727v-0.525h1.727zM43.139 24.336v3.25h-0.667v-3.251h0.667zM44.139 24.336v0.525h-2.651v-0.525h2.651zM46.702 27.064v0.523h-1.73v-0.523h1.73zM45.19 24.336v3.25h-0.67v-3.251h0.67zM46.476 25.661v0.509h-1.505v-0.509h1.505zM46.699 24.337v0.525h-1.728v-0.525h1.728zM47.092 24.337h1.213c0.248 0 0.462 0.038 0.64 0.112 0.181 0.074 0.319 0.184 0.416 0.33s0.145 0.325 0.145 0.538c0 0.174-0.030 0.324-0.089 0.45-0.059 0.124-0.143 0.228-0.246 0.309l-0.002 0.001c-0.107 0.082-0.231 0.148-0.364 0.193l-0.009 0.003-0.212 0.112h-1.054l-0.004-0.523h0.783c0.007 0 0.015 0 0.022 0 0.098 0 0.191-0.023 0.274-0.064l-0.004 0.002c0.075-0.040 0.134-0.099 0.173-0.172l0.001-0.002c0.038-0.072 0.061-0.158 0.061-0.249 0-0.004-0-0.007-0-0.011v0.001c0-0.004 0-0.009 0-0.014 0-0.093-0.022-0.181-0.060-0.26l0.002 0.003c-0.039-0.076-0.1-0.136-0.174-0.173l-0.002-0.001c-0.081-0.039-0.176-0.061-0.276-0.061-0.008 0-0.015 0-0.023 0l0.001-0h-0.542v2.726h-0.67v-3.252zM48.909 27.587l-0.741-1.448 0.709-0.005 0.749 1.422v0.030h-0.716zM51.713 26.737c0-0.002 0-0.004 0-0.007 0-0.054-0.010-0.105-0.028-0.152l0.001 0.003c-0.020-0.052-0.052-0.096-0.093-0.129l-0.001-0c-0.056-0.046-0.12-0.086-0.189-0.117l-0.005-0.002c-0.087-0.040-0.194-0.081-0.304-0.115l-0.019-0.005c-0.171-0.055-0.31-0.109-0.445-0.17l0.026 0.010c-0.133-0.060-0.248-0.13-0.353-0.211l0.004 0.003c-0.096-0.076-0.175-0.169-0.234-0.274l-0.002-0.005c-0.054-0.102-0.086-0.224-0.086-0.353 0-0.006 0-0.011 0-0.017v0.001c-0-0.003-0-0.007-0-0.010 0-0.131 0.033-0.254 0.091-0.362l-0.002 0.004c0.060-0.112 0.143-0.207 0.251-0.286 0.107-0.081 0.233-0.142 0.379-0.185s0.309-0.065 0.484-0.065c0.24 0 0.45 0.043 0.627 0.13 0.179 0.086 0.317 0.204 0.415 0.354 0.1 0.151 0.15 0.322 0.15 0.516h-0.665c0-0.003 0-0.007 0-0.010 0-0.088-0.023-0.171-0.062-0.242l0.001 0.003c-0.041-0.074-0.102-0.133-0.176-0.17l-0.002-0.001c-0.081-0.040-0.176-0.064-0.277-0.064-0.008 0-0.015 0-0.023 0l0.001-0c-0.007-0-0.015-0-0.023-0-0.096 0-0.188 0.020-0.272 0.055l0.005-0.002c-0.072 0.030-0.132 0.078-0.174 0.14l-0.001 0.001c-0.036 0.054-0.058 0.12-0.058 0.192 0 0.002 0 0.003 0 0.005v-0c0 0.055 0.014 0.105 0.040 0.149 0.034 0.050 0.075 0.091 0.123 0.124l0.002 0.001c0.055 0.039 0.123 0.076 0.203 0.11s0.173 0.068 0.279 0.101c0.177 0.053 0.332 0.114 0.466 0.181 0.136 0.067 0.248 0.142 0.339 0.226s0.16 0.178 0.206 0.283 0.069 0.226 0.069 0.36c0 0.141-0.027 0.267-0.082 0.379s-0.135 0.206-0.238 0.283c-0.104 0.078-0.229 0.136-0.373 0.176s-0.305 0.061-0.484 0.061c-0.161 0-0.32-0.021-0.475-0.062-0.162-0.045-0.304-0.111-0.432-0.198l0.005 0.003c-0.125-0.086-0.227-0.197-0.301-0.326l-0.003-0.005c-0.076-0.134-0.114-0.293-0.114-0.475h0.672c0 0.101 0.015 0.187 0.047 0.257 0.030 0.068 0.074 0.126 0.13 0.169l0.001 0.001c0.058 0.043 0.127 0.075 0.202 0.093l0.004 0.001c0.081 0.019 0.168 0.029 0.264 0.029 0.007 0 0.015 0 0.023 0 0.094 0 0.185-0.018 0.267-0.052l-0.005 0.002c0.132-0.053 0.223-0.18 0.223-0.328 0-0.002 0-0.003-0-0.005v0z"></path>
</symbol>
<symbol id="icon-5" viewBox="0 0 43 32">
<path d="M3.239 26.373c0.166 0.188 0.254 0.424 0.25 0.665 0.001 0.015 0.001 0.033 0.001 0.050 0 0.149-0.033 0.29-0.093 0.416l0.003-0.006c-0.072 0.152-0.172 0.279-0.296 0.378l-0.002 0.002c-0.282 0.194-0.631 0.31-1.007 0.31-0.041 0-0.082-0.001-0.123-0.004l0.006 0h-1.977v-4.214h1.936c0.034-0.002 0.074-0.004 0.115-0.004 0.356 0 0.688 0.106 0.965 0.287l-0.007-0.004c0.125 0.097 0.225 0.218 0.289 0.354 0.065 0.138 0.095 0.286 0.086 0.436 0.011 0.232-0.068 0.461-0.225 0.644-0.15 0.168-0.358 0.283-0.59 0.33 0.262 0.044 0.499 0.172 0.667 0.361zM0.92 25.737h0.828c0.188 0.012 0.374-0.037 0.526-0.14 0.060-0.050 0.108-0.113 0.14-0.184l0.001-0.003c0.024-0.054 0.038-0.118 0.038-0.185 0-0.014-0.001-0.028-0.002-0.042l0 0.002c0.001-0.011 0.001-0.023 0.001-0.035 0-0.068-0.014-0.133-0.040-0.192l0.001 0.003c-0.033-0.075-0.079-0.137-0.138-0.187l-0.001-0.001c-0.134-0.091-0.298-0.145-0.476-0.145-0.023 0-0.046 0.001-0.069 0.003l0.003-0h-0.815v1.106zM2.355 27.353c0.065-0.051 0.116-0.116 0.151-0.19l0.001-0.003c0.028-0.059 0.044-0.128 0.044-0.202 0-0.012-0-0.023-0.001-0.035l0 0.002c0.001-0.009 0.001-0.020 0.001-0.031 0-0.075-0.017-0.147-0.047-0.21l0.001 0.003c-0.037-0.078-0.090-0.143-0.154-0.193l-0.001-0.001c-0.142-0.097-0.318-0.154-0.507-0.154-0.019 0-0.039 0.001-0.058 0.002l0.003-0h-0.868v1.16h0.88c0.197 0.010 0.394-0.041 0.556-0.146zM7.197 28.185l-1.076-1.648h-0.405v1.648h-0.927v-4.215h1.755c0.037-0.003 0.081-0.004 0.125-0.004 0.413 0 0.794 0.136 1.1 0.366l-0.005-0.003c0.245 0.229 0.394 0.53 0.417 0.85 0.002 0.026 0.003 0.057 0.003 0.088 0 0.307-0.109 0.589-0.291 0.808l0.002-0.002c-0.218 0.224-0.506 0.378-0.829 0.427l-0.008 0.001 1.147 1.684h-1.008zM5.715 25.963h0.758c0.526 0 0.79-0.212 0.79-0.638 0.001-0.010 0.001-0.022 0.001-0.034 0-0.080-0.016-0.156-0.045-0.225l0.001 0.004c-0.036-0.086-0.087-0.159-0.15-0.218l-0-0c-0.144-0.109-0.326-0.174-0.523-0.174-0.026 0-0.051 0.001-0.077 0.003l0.003-0h-0.767l0.009 1.283zM12.262 27.336h-1.846l-0.326 0.849h-0.972l1.695-4.168h1.051l1.689 4.168h-0.971l-0.319-0.848zM12.015 26.698l-0.675-1.779-0.675 1.779h1.349zM18.602 28.185h-0.919l-2.063-2.866v2.866h-0.918v-4.216h0.918l2.063 2.883v-2.883h0.919v4.216zM23.852 27.176c-0.191 0.318-0.48 0.577-0.833 0.744-0.358 0.168-0.777 0.267-1.219 0.267-0.026 0-0.053-0-0.079-0.001l0.004 0h-1.637v-4.215h1.637c0.023-0.001 0.050-0.001 0.077-0.001 0.441 0 0.859 0.096 1.235 0.267l-0.019-0.008c0.352 0.163 0.642 0.419 0.832 0.735 0.189 0.343 0.288 0.722 0.288 1.106s-0.099 0.763-0.288 1.106zM22.8 27.075c0.25-0.261 0.404-0.616 0.406-1.006v-0c0-0.369-0.144-0.726-0.406-1.006-0.285-0.226-0.65-0.362-1.047-0.362-0.037 0-0.074 0.001-0.11 0.004l0.005-0h-0.639v2.729h0.639c0.032 0.002 0.069 0.003 0.106 0.003 0.396 0 0.761-0.136 1.050-0.364l-0.004 0.003zM12.838 0.522s11.873 4.104 11.621 10.043v10.045s-11.864-4.106-11.617-10.045l-0.004-10.043zM35.037 18.259c2.243-1.413 4.836-2.288 7.544-2.545v-3.146c-3.12 1.102-5.767 3.098-7.544 5.691z"></path>
<path d="M33.69 19.207c1.835-3.384 5.017-5.995 8.891-7.297v-9.061s-16.909 5.846-16.552 14.304v14.302s0.754-0.261 1.939-0.752c0-0.457 0-0.918 0.054-1.382 0.349-3.926 2.388-7.564 5.667-10.115z"></path>
<path  d="M32.082 24.52c0.089-0.992 0.287-1.973 0.592-2.928-2.043 2.203-3.279 4.936-3.536 7.816-0.025 0.272-0.039 0.543-0.045 0.824 1.41-0.617 2.478-1.142 3.524-1.703l-0.273 0.133c-0.3-1.362-0.388-2.757-0.263-4.142zM32.754 24.571c-0.033 0.348-0.052 0.752-0.052 1.161 0 0.917 0.095 1.811 0.276 2.674l-0.015-0.084c4.62-2.531 9.811-6.442 9.61-11.168v-0.412c-3.301 0.338-6.388 1.659-8.79 3.76-0.53 1.19-0.895 2.571-1.026 4.019l-0.004 0.051z"></path>
</symbol>
<symbol id="icon-6" viewBox="0 0 67 32">
<path d="M33.724 15.223c-0.271-0.35-0.435-0.795-0.435-1.278 0-0.048 0.002-0.095 0.005-0.142l-0 0.006v-2.051c0-0.628 0.142-1.106 0.428-1.433 0.284-0.327 0.774-0.489 1.468-0.488 0.652 0 1.116 0.139 1.389 0.417 0.299 0.355 0.444 0.789 0.411 1.226v0.482h-1.166v-0.489c0.004-0.159-0.007-0.319-0.034-0.477-0.020-0.116-0.081-0.214-0.166-0.283l-0.001-0.001c-0.105-0.070-0.234-0.112-0.373-0.112-0.018 0-0.035 0.001-0.052 0.002l0.002-0c-0.015-0.001-0.033-0.002-0.050-0.002-0.147 0-0.283 0.044-0.397 0.12l0.003-0.002c-0.096 0.077-0.166 0.185-0.193 0.309l-0.001 0.004c-0.030 0.14-0.047 0.302-0.047 0.467 0 0.014 0 0.028 0 0.042l-0-0.002v2.488c-0.019 0.24 0.033 0.48 0.149 0.698 0.061 0.075 0.139 0.133 0.23 0.168l0.004 0.001c0.068 0.027 0.148 0.043 0.231 0.043 0.025 0 0.050-0.001 0.074-0.004l-0.003 0c0.015 0.001 0.032 0.002 0.049 0.002 0.136 0 0.262-0.043 0.365-0.116l-0.002 0.001c0.090-0.075 0.153-0.18 0.174-0.299l0-0.003c0.027-0.165 0.040-0.332 0.036-0.498v-0.505h1.167v0.461c0.003 0.036 0.004 0.079 0.004 0.122 0 0.443-0.153 0.85-0.41 1.171l0.003-0.004c-0.268 0.304-0.725 0.457-1.397 0.457s-1.179-0.163-1.466-0.501zM38.583 15.245c-0.295-0.32-0.442-0.784-0.442-1.399v-2.157c0-0.609 0.147-1.070 0.442-1.383s0.787-0.469 1.478-0.467c0.686 0 1.176 0.156 1.471 0.467 0.294 0.313 0.444 0.774 0.444 1.383v2.156c0 0.609-0.149 1.077-0.449 1.398s-0.787 0.481-1.466 0.481-1.181-0.163-1.479-0.479zM40.604 14.727c0.106-0.199 0.154-0.419 0.14-0.638v-2.641c0.001-0.021 0.002-0.046 0.002-0.071 0-0.203-0.052-0.394-0.142-0.561l0.003 0.006c-0.062-0.076-0.142-0.135-0.234-0.17l-0.004-0.001c-0.068-0.027-0.146-0.042-0.229-0.042-0.028 0-0.056 0.002-0.083 0.005l0.003-0c-0.024-0.003-0.051-0.005-0.079-0.005-0.083 0-0.161 0.015-0.234 0.043l0.004-0.002c-0.096 0.036-0.177 0.096-0.239 0.171l-0.001 0.001c-0.107 0.195-0.154 0.41-0.14 0.626v2.652c-0.014 0.22 0.033 0.439 0.14 0.639 0.068 0.067 0.152 0.121 0.246 0.158 0.089 0.036 0.192 0.056 0.3 0.056s0.211-0.021 0.305-0.058l-0.006 0.002c0.095-0.037 0.178-0.091 0.246-0.158v-0.013zM43.381 9.902h1.256l0.944 3.979 0.967-3.979h1.222l0.124 5.743h-0.904l-0.097-3.991-0.932 3.991h-0.725l-0.966-4.006-0.090 4.006h-0.913l0.114-5.743zM49.301 9.902h1.957c1.127 0 1.691 0.543 1.691 1.631 0 1.041-0.594 1.562-1.781 1.56h-0.666v2.552h-1.208l0.007-5.744zM50.973 12.356c0.119 0.014 0.24 0.004 0.356-0.028 0.114-0.031 0.22-0.083 0.309-0.154 0.139-0.194 0.2-0.422 0.174-0.649 0.001-0.019 0.001-0.041 0.001-0.063 0-0.163-0.022-0.321-0.062-0.471l0.003 0.013c-0.019-0.061-0.050-0.114-0.089-0.158l0 0c-0.042-0.047-0.093-0.086-0.149-0.114l-0.003-0.001c-0.141-0.059-0.304-0.094-0.476-0.094-0.022 0-0.044 0.001-0.066 0.002l0.003-0h-0.469v1.717h0.469zM54.692 9.902h1.297l1.331 5.743h-1.126l-0.263-1.324h-1.157l-0.27 1.324h-1.143l1.331-5.743zM55.8 13.655l-0.452-2.411-0.452 2.411h0.903zM58.394 9.902h0.846l1.618 3.276v-3.276h1.003v5.743h-0.804l-1.628-3.42v3.42h-1.036l0.002-5.743zM64.209 13.454l-1.345-3.545h1.133l0.821 2.278 0.77-2.278h1.109l-1.329 3.546v2.19h-1.159v-2.19zM35.59 18.156v0.3h-0.986v2.334h-0.413v-2.334h-0.991v-0.3h2.389zM38.679 20.79h-0.319c-0.003 0-0.006 0-0.009 0-0.030 0-0.058-0.009-0.081-0.025l0 0c-0.023-0.015-0.041-0.035-0.052-0.060l-0-0.001-0.285-0.626h-1.367l-0.284 0.626c-0.009 0.028-0.024 0.052-0.044 0.071l-0 0c-0.023 0.016-0.052 0.025-0.082 0.025-0.003 0-0.005-0-0.008-0h-0.318l1.208-2.634h0.42l1.223 2.624zM36.679 19.812h1.14l-0.484-1.072c-0.031-0.067-0.061-0.15-0.086-0.235l-0.003-0.014c-0.017 0.050-0.031 0.098-0.045 0.14l-0.044 0.11-0.478 1.070zM40.762 20.531c0.076 0.004 0.151 0.004 0.228 0 0.065-0.006 0.129-0.016 0.193-0.031 0.059-0.012 0.117-0.028 0.174-0.048 0.053-0.018 0.107-0.042 0.161-0.065v-0.592h-0.483c-0.001 0-0.003 0-0.004 0-0.023 0-0.044-0.008-0.061-0.022l0 0c-0.008-0.006-0.014-0.013-0.018-0.021l-0-0c-0.004-0.007-0.006-0.015-0.006-0.024 0-0.001 0-0.002 0-0.003v0-0.202h0.937v1.010c-0.147 0.091-0.316 0.165-0.496 0.211l-0.013 0.003c-0.1 0.026-0.2 0.043-0.302 0.055-0.117 0.011-0.235 0.016-0.353 0.016-0.005 0-0.010 0-0.015 0-0.212 0-0.416-0.036-0.606-0.102l0.013 0.004c-0.186-0.065-0.347-0.158-0.486-0.277l0.002 0.002c-0.129-0.114-0.234-0.253-0.308-0.409l-0.003-0.008c-0.070-0.156-0.111-0.338-0.111-0.529 0-0.006 0-0.012 0-0.019v0.001c-0-0.005-0-0.010-0-0.016 0-0.193 0.040-0.377 0.112-0.543l-0.003 0.009c0.069-0.156 0.176-0.299 0.311-0.417 0.138-0.119 0.302-0.211 0.484-0.273 0.206-0.068 0.427-0.101 0.647-0.098 0.112 0 0.225 0.007 0.336 0.023 0.098 0.014 0.195 0.036 0.287 0.067 0.085 0.027 0.166 0.063 0.242 0.105 0.074 0.041 0.144 0.087 0.211 0.137l-0.116 0.163c-0.010 0.015-0.023 0.027-0.039 0.035l-0.001 0c-0.016 0.009-0.035 0.014-0.055 0.014h-0c-0.028-0.001-0.053-0.008-0.075-0.021l0.001 0c-0.049-0.023-0.088-0.044-0.126-0.066l0.007 0.004c-0.045-0.025-0.099-0.049-0.154-0.069l-0.008-0.002c-0.062-0.022-0.136-0.042-0.213-0.057l-0.009-0.001c-0.087-0.015-0.188-0.023-0.29-0.023-0.006 0-0.011 0-0.017 0h0.001c-0.004-0-0.010-0-0.015-0-0.162 0-0.317 0.027-0.462 0.076l0.010-0.003c-0.134 0.046-0.256 0.117-0.356 0.208-0.095 0.090-0.171 0.199-0.222 0.321l-0.002 0.006c-0.051 0.13-0.081 0.281-0.081 0.439s0.030 0.309 0.084 0.448l-0.003-0.008c0.053 0.124 0.135 0.237 0.242 0.332 0.099 0.090 0.219 0.161 0.352 0.208 0.154 0.046 0.316 0.063 0.479 0.052zM44.612 20.49h1.319v0.3h-1.722v-2.634h0.412l-0.009 2.334zM47.303 20.79h-0.412v-2.634h0.412v2.634zM48.84 18.169c0.025 0.012 0.046 0.028 0.063 0.047l0 0 1.766 1.985c-0.001-0.014-0.002-0.030-0.002-0.047s0.001-0.033 0.002-0.049l-0 0.002v-1.963h0.36v2.645h-0.208c-0.004 0-0.009 0-0.014 0-0.027 0-0.054-0.006-0.077-0.016l0.001 0c-0.025-0.013-0.047-0.030-0.065-0.050l-0-0-1.764-1.984v2.048h-0.346v-2.634h0.215c0.023 0 0.047 0.004 0.068 0.012zM54.070 18.156v0.289h-1.463v0.87h1.186v0.279h-1.186v0.9h1.463v0.289h-1.889v-2.628h1.889zM10.782 1.889l18.343 4.496v15.757l-18.343-4.494v-15.76zM9.605 0.545v17.868l20.693 5.075v-17.866l-20.693-5.076z"></path>
<path  d="M20.696 31.781l-20.696-5.079v-17.865l20.696 5.077v17.867z"></path>
<path  d="M9.948 1.686l18.103 4.44-7.698 6.649-18.107-4.442 7.702-6.647zM9.605 0.545l-9.605 8.292 20.696 5.077 9.603-8.294-20.693-5.075zM21.86 30.776l8.439-7.288-8.439-2.069v9.358z"></path>
</symbol>
<symbol id="icon-1" viewBox="0 0 28 32">
<path d="M4.085 0l4.771 4.517-8.857-0.005v21.915h23.149v-8.379l4.766 4.512v-22.559h-23.83zM22.939 17.517l-13.528-12.807h13.528v12.807zM18.739 23.22h-15.076v-14.738h1.066v13.74h14.011v0.997zM7.224 29.345h0.465l-0.811 1.529v0.891h-0.422v-0.891l-0.813-1.529h0.467l0.557 1.147 0.557-1.147zM7.924 31.765l0.196-0.564h0.938l0.197 0.564h0.439l-0.916-2.42h-0.378l-0.914 2.42h0.437zM8.588 29.859l0.351 1.004h-0.701l0.351-1.004zM10.806 30.804c-0.057 0.085-0.091 0.19-0.091 0.303 0 0.001 0 0.003 0 0.004v-0c0 0.204 0.072 0.37 0.214 0.497s0.336 0.19 0.575 0.19c0.239 0 0.445-0.065 0.618-0.195l0.136 0.161h0.468l-0.355-0.421c0.14-0.191 0.209-0.435 0.209-0.733h-0.351c0 0.163-0.034 0.311-0.101 0.444l-0.468-0.552 0.165-0.12c0.1-0.068 0.184-0.152 0.249-0.249l0.002-0.003c0.048-0.079 0.076-0.174 0.076-0.275 0-0.001 0-0.003-0-0.004v0c0-0.003 0-0.006 0-0.009 0-0.149-0.065-0.283-0.169-0.374l-0.001-0c-0.108-0.097-0.251-0.157-0.408-0.157-0.008 0-0.017 0-0.025 0l0.001-0c-0.195 0-0.35 0.056-0.465 0.166s-0.173 0.259-0.173 0.449c0 0.078 0.018 0.157 0.054 0.241 0.038 0.083 0.104 0.184 0.197 0.302-0.179 0.129-0.3 0.24-0.36 0.334zM11.898 31.34c-0.104 0.084-0.237 0.135-0.382 0.136h-0c-0.006 0-0.013 0-0.020 0-0.104 0-0.199-0.040-0.27-0.106l0 0c-0.067-0.066-0.108-0.157-0.108-0.259 0-0.005 0-0.009 0-0.014l-0 0.001c0-0.129 0.067-0.245 0.2-0.346l0.052-0.037 0.528 0.624zM11.464 30.267c-0.114-0.141-0.172-0.257-0.172-0.351 0-0.081 0.024-0.148 0.070-0.201 0.044-0.049 0.107-0.081 0.178-0.081 0.004 0 0.007 0 0.010 0l-0.001-0c0.003-0 0.006-0 0.009-0 0.067 0 0.127 0.026 0.173 0.068l-0-0c0.048 0.045 0.072 0.099 0.072 0.161 0 0.003 0 0.006 0 0.009 0 0.090-0.040 0.171-0.103 0.226l-0 0-0.052 0.041-0.184 0.127zM15.404 31.582c0.166-0.145 0.261-0.347 0.286-0.605h-0.419c-0.022 0.173-0.075 0.296-0.158 0.37s-0.208 0.112-0.372 0.112c-0.18 0-0.318-0.069-0.412-0.206s-0.14-0.337-0.14-0.599v-0.214c0.003-0.259 0.052-0.453 0.15-0.587 0.099-0.134 0.24-0.201 0.422-0.201 0.157 0 0.276 0.039 0.357 0.116s0.133 0.202 0.153 0.376h0.419c-0.027-0.265-0.121-0.47-0.285-0.615s-0.378-0.218-0.645-0.218c-0.198 0-0.373 0.048-0.525 0.142-0.152 0.097-0.271 0.234-0.345 0.396l-0.002 0.006c-0.077 0.169-0.122 0.367-0.122 0.576 0 0.010 0 0.020 0 0.030l-0-0.001v0.226c0.003 0.223 0.045 0.418 0.125 0.587s0.193 0.298 0.339 0.39c0.148 0.091 0.318 0.136 0.511 0.136 0.276 0 0.497-0.072 0.663-0.216zM17.875 31.243c0.082-0.18 0.123-0.388 0.123-0.625v-0.134c0-0.007 0-0.016 0-0.024 0-0.216-0.047-0.421-0.131-0.605l0.004 0.009c-0.077-0.171-0.199-0.31-0.35-0.406l-0.004-0.002c-0.152-0.095-0.326-0.143-0.524-0.143s-0.372 0.048-0.525 0.144c-0.152 0.095-0.27 0.233-0.354 0.414-0.079 0.175-0.125 0.38-0.125 0.595 0 0.011 0 0.021 0 0.032l-0-0.002v0.136c0.001 0.232 0.043 0.436 0.126 0.613 0.084 0.178 0.203 0.315 0.356 0.411 0.154 0.095 0.329 0.143 0.525 0.143 0.199 0 0.374-0.048 0.526-0.143 0.152-0.097 0.27-0.234 0.352-0.413zM17.425 29.874c0.102 0.143 0.152 0.349 0.152 0.618v0.126c0 0.272-0.050 0.48-0.151 0.622-0.099 0.142-0.242 0.213-0.429 0.213-0.005 0-0.011 0-0.017 0-0.171 0-0.323-0.086-0.413-0.216l-0.001-0.002c-0.104-0.145-0.155-0.351-0.155-0.617v-0.14c0.002-0.26 0.054-0.462 0.156-0.603 0.091-0.13 0.24-0.215 0.409-0.215 0.006 0 0.012 0 0.018 0l-0.001-0c0.187 0 0.33 0.072 0.431 0.214z"></path>
</symbol>
<symbol id="icon-envelope-hover" viewBox="0 0 43 32">
<path d="M38.667 0H4C1.794 0 0 1.794 0 4v24c0 2.206 1.794 4 4 4h34.667c2.206 0 4-1.794 4-4V4c0-2.206-1.794-4-4-4zm0 2.667c.181 0 .353.038.511.103L21.334 18.236 3.49 2.77a1.32 1.32 0 0 1 .511-.103h34.667zm0 26.666H4A1.334 1.334 0 0 1 2.667 28V5.587L20.46 21.008a1.335 1.335 0 0 0 1.748 0L40.001 5.587V28c0 .736-.598 1.333-1.333 1.333z"/>
</symbol>
<symbol id="icon-smartphone" viewBox="0 0 20 32">
<path d="M17 0H3C1.346 0 0 1.346 0 3v26c0 1.654 1.346 3 3 3h14c1.654 0 3-1.346 3-3V3c0-1.654-1.346-3-3-3zM3 2h14a1 1 0 0 1 1 1v21H2V3a1 1 0 0 1 1-1zm14 28H3a1 1 0 0 1-1-1v-3h16v3a1 1 0 0 1-1 1z"/>
<path d="M4.707 27.478c.391.365.391.956 0 1.321s-1.024.365-1.414 0c-.391-.365-.391-.956 0-1.321s1.024-.365 1.414 0z"/>
</symbol>
<symbol id="icon-antenna"  viewBox="0 0 32 32" >
<path  fill="#212121" style="fill:var(--color1, #212121)" d="m30.773 22.098-8.443-8.505.937-4.615c.242.094.499.144.758.146h.006a2.159 2.159 0 1 0-2.008-1.435l-4.96.605L8.972.161a.534.534 0 0 0-.377-.16.532.532 0 0 0-.373.155L6.709 1.66a.534.534 0 0 0 0 .754l.814.826a14.943 14.943 0 0 0 2.519 17.663.513.513 0 0 0 .146.098c-.034.18-.051.364-.052.547v6.187h-6.4a2.67 2.67 0 0 0-2.667 2.667v1.067c0 .295.239.533.533.533h24.533a.533.533 0 0 0 .533-.533v-1.067a2.67 2.67 0 0 0-2.667-2.667h-6.4v-2.742a15.09 15.09 0 0 0 3.049.32 14.854 14.854 0 0 0 7.04-1.783l.818.823a.534.534 0 0 0 .377.16.532.532 0 0 0 .373-.155l1.513-1.504a.534.534 0 0 0 0-.754zM23.28 6.233a1.066 1.066 0 1 1 .752 1.822h-.003a1.067 1.067 0 0 1-.747-1.823h-.002zm-1.256 3.505-.598 2.946-1.175-1.182 1.774-1.763zm-.605-.902-1.92 1.909-1.485-1.493 3.405-.415zM24.004 28.8a1.6 1.6 0 0 1 1.6 1.6v.533H2.137V30.4a1.6 1.6 0 0 1 1.6-1.6h20.267zm-7.467-2.133v1.067h-5.333v-1.067h5.333zM11.204 25.6v-4.053c0-1.294 1.196-2.347 2.667-2.347s2.667 1.053 2.667 2.347V25.6h-5.333zm6.4-1.696v-2.357c0-1.882-1.675-3.413-3.733-3.413a3.8 3.8 0 0 0-3.281 1.786A13.87 13.87 0 0 1 8.311 4.033l18.602 18.708a13.818 13.818 0 0 1-9.309 1.163zm11.289-.684L7.836 2.039l.755-.752 7.935 7.98c.004 0 .006.007.01.01l13.115 13.191-.757.752z"/>
<path fill="#2196f3" style="fill:var(--color2, #2196f3)" d="M13.876 20.267h-.005a1.6 1.6 0 1 0-.004 3.2h.005a1.6 1.6 0 1 0 .004-3.2zm.373 1.978a.534.534 0 0 1-.752-.756.534.534 0 0 1 .373-.155.532.532 0 0 1 .373.911h.005z"/>
</symbol>
<symbol id="icon-astronaut" viewBox="0 0 32 32">
<path fill="#2196f3" style="fill:var(--color2, #2196f3)" d="M31.974 4.524a.534.534 0 0 0-.43-.363l-1.91-.278-.855-1.731c-.179-.365-.777-.365-.956 0l-.855 1.731-1.91.278a.535.535 0 0 0-.296.91l1.383 1.348-.326 1.903c-.034.2.048.402.212.522a.53.53 0 0 0 .562.04l1.709-.899 1.709.899a.536.536 0 0 0 .775-.563l-.326-1.903 1.383-1.348a.536.536 0 0 0 .135-.547zm-2.463 1.327a.534.534 0 0 0-.153.472l.191 1.114-1-.526a.533.533 0 0 0-.498 0l-1.001.526.191-1.114a.534.534 0 0 0-.153-.472l-.81-.789 1.119-.163a.532.532 0 0 0 .402-.292l.5-1.013.5 1.013a.535.535 0 0 0 .402.292l1.119.163-.809.789zM26.134 20.522h-1.067v1.067h1.067v-1.067zM26.134 22.656h-1.067v1.067h1.067v-1.067zM27.2 21.589h-1.067v1.067H27.2v-1.067zM25.067 21.589H24v1.067h1.067v-1.067zM22.4 26.389h-1.067v1.067H22.4v-1.067zM22.4 28.522h-1.067v1.067H22.4v-1.067zM23.467 27.456H22.4v1.067h1.067v-1.067zM21.333 27.456h-1.067v1.067h1.067v-1.067zM16 24.256h-1.067v1.067H16v-1.067zM16 26.389h-1.067v1.067H16v-1.067zM17.067 25.322H16v1.067h1.067v-1.067zM14.933 25.322h-1.067v1.067h1.067v-1.067zM5.867 6.122H4.8v1.067h1.067V6.122zM5.867 8.255H4.8v1.067h1.067V8.255z"/>
<path fill="#2196f3" style="fill:var(--color2, #2196f3)" d="M6.933 7.189H5.866v1.067h1.067V7.189zM4.8 7.189H3.733v1.067H4.8V7.189z"/>
<path fill="#212121" style="fill:var(--color1, #212121)" d="M24.715 14.159a1.775 1.775 0 0 0-1.188-.705 1.778 1.778 0 0 0-1.34.352l-1.252.96-1.898 1.417-1.358-.541c2.421-1.086 4.114-3.508 4.114-6.32 0-3.823-3.123-6.933-6.961-6.933s-6.961 3.11-6.961 6.933a6.86 6.86 0 0 0 1.12 3.758l-2.764-.024h-.005c-.009 0-.015.004-.023.005a.515.515 0 0 0-.155.031l-.038.013c-.006.003-.013.003-.019.006l-3.233 1.596-.001.001-1.893.911a.397.397 0 0 0-.063.035 1.779 1.779 0 0 0-.598 2.295c.22.429.595.745 1.056.889a1.776 1.776 0 0 0 1.378-.128l1.388-.738 2.264-1.169 1.357-.008L2.2 22.211l-.002.001-1.339 1.333c-.316.315-.49.732-.49 1.178s.174.863.49 1.179c.325.323.752.485 1.179.485s.854-.162 1.18-.485l1.314-1.309 1.741-1.3.901.897-1.762 1.754-.002.001-1.339 1.333c-.316.315-.49.732-.49 1.178s.174.863.49 1.179c.325.323.753.485 1.18.485s.855-.162 1.18-.485l3.482-3.467.001-.002 1.01-1-.004-.004c.006-.006.015-.009.022-.015l5.166-5.658 3.471.494a.52.52 0 0 0 .262-.033c.018-.006.033-.015.05-.023.019-.01.039-.015.058-.027l3.213-2.133c.012-.008.018-.021.029-.029.013-.01.029-.014.041-.026l1.271-1.191c.662-.62.753-1.635.212-2.362zM2.13 17.77a.714.714 0 0 1-.558.052.717.717 0 0 1-.213-1.26l1.314-.632.449 1.312-.992.528zm3.498-1.828-1.548.8-.439-1.283 2.027-1.001-.04 1.484zm15.099-6.62a5.79 5.79 0 0 1-.599 2.559l-4.181-1.899a1.863 1.863 0 0 0-.788-1.388l1.464-4.86c2.378.756 4.105 2.974 4.105 5.588zm-11.789 0c0-3.235 2.644-5.867 5.894-5.867.253 0 .5.021.745.052l-1.432 4.754c-.019-.001-.037-.006-.057-.006-1.033 0-1.873.837-1.873 1.867s.84 1.867 1.873 1.867c.694 0 1.294-.383 1.618-.945l3.862 1.755a5.894 5.894 0 0 1-4.737 2.39c-3.25 0-5.894-2.632-5.894-5.867zm5.956.8c0 .441-.362.8-.806.8s-.806-.359-.806-.8c0-.441.362-.8.806-.8s.806.359.806.8zM2.465 25.146a.608.608 0 0 1-.854.001.592.592 0 0 1 0-.844l.962-.958.851.848-.959.955zm3.214 3.734a.608.608 0 0 1-.855.001.592.592 0 0 1 0-.844l.963-.959.852.848-.96.955zm3.481-3.469-.002.001-1.765 1.76-.852-.848 1.763-1.755.002-.001c.04-.04.065-.088.09-.135.007-.014.02-.026.026-.04.017-.041.019-.085.026-.129.003-.025.014-.047.014-.073 0-.036-.013-.07-.02-.106-.006-.032-.006-.065-.019-.095a.55.55 0 0 0-.091-.138c-.01-.012-.014-.027-.025-.038h-.001l-.001-.002-1.607-1.6c-.017-.017-.039-.024-.058-.038a.507.507 0 0 0-.087-.058.515.515 0 0 0-.093-.033.507.507 0 0 0-.103-.02.5.5 0 0 0-.095.005.53.53 0 0 0-.104.02.477.477 0 0 0-.094.045c-.02.011-.042.015-.061.029L4.23 23.486l-.901-.897 2.399-2.386 4.361 4.289-.928.919zm6.819-7.017c-.015-.002-.03.004-.045.003a.556.556 0 0 0-.3.075.492.492 0 0 0-.083.061c-.013.011-.028.017-.04.029l-4.698 5.146-4.328-4.257 2.833-2.818a.534.534 0 0 0-.379-.911v-.001l-2.219.013.028-1.607 3.104.027a6.947 6.947 0 0 0 4.981 2.101c.437 0 .864-.045 1.279-.123.04.032.079.065.13.085l2.41.96.331 1.644-3.003-.427zm4.041.178-.313-1.558 1.446-1.08.947 1.257-2.08 1.381zm3.754-2.831-.838.785-.931-1.236.831-.637a.735.735 0 0 1 .543-.143.718.718 0 0 1 .48.284.713.713 0 0 1-.085.947z"/>
<path fill="#212121" style="fill:var(--color1, #212121)" d="m13.602 18.544-2.143-2.133a.534.534 0 0 0-.753 0l-2.142 2.133a.537.537 0 0 0 0 .756l2.142 2.133a.536.536 0 0 0 .753 0l2.143-2.133a.535.535 0 0 0 0-.756zm-2.519 1.759-1.387-1.381 1.387-1.381 1.387 1.381-1.387 1.381zM17.164 5.071l-.258 1.036c.071.018 1.738.452 1.738 2.149h1.067c0-2.017-1.666-2.965-2.547-3.185zM19.711 9.322h-1.067v1.067h1.067V9.322z"/>
</symbol>
<symbol id="icon-clock" viewBox="0 0 32 32">
<path fill="#212121" style="fill:var(--color1, #212121)" d="M31.297 15.301C31.295 6.849 24.442-.002 15.989 0S.686 6.855.688 15.308a15.304 15.304 0 0 0 10.649 14.576.662.662 0 0 0 .529-.065.637.637 0 0 0 .283-.356l3.865-12.25a1.912 1.912 0 1 0-.84-3.635l-5.106-5.107a.637.637 0 0 0-.902.902l5.103 5.109a1.876 1.876 0 0 0 .536 2.309l-3.683 11.673C3.844 25.783.118 17.71 2.799 10.432S13.553-.572 20.831 2.109s11.004 10.754 8.323 18.032a14.042 14.042 0 0 1-7.462 7.973l-.398-1.874a.638.638 0 0 0-1.048-.344l-3.837 3.426a.637.637 0 0 0 .231 1.084l4.899 1.563a.638.638 0 0 0 .819-.74l-.391-1.839a15.255 15.255 0 0 0 9.329-14.089zm-15.305-.637a.638.638 0 1 1 0 1.277.638.638 0 0 1 0-1.277zm2.101 14.864 2.184-1.948.603 2.84-2.787-.892z"/>
<path fill="#2196f3" style="fill:var(--color2, #2196f3)" d="M15.354 3.185V4.46a.638.638 0 1 0 1.276 0V3.185a.638.638 0 0 0-1.276 0zM3.876 14.664a.638.638 0 0 0 0 1.276h1.275a.638.638 0 1 0 0-1.276H3.876zM28.108 15.939a.638.638 0 1 0 0-1.276h-1.275a.638.638 0 0 0 0 1.276h1.275z"/>
</symbol>
<symbol id="icon-diagram" viewBox="0 0 32 32">
<path fill="#2196f3" style="fill:var(--color2, #2196f3)" d="M14.926 14.965h1.066v4.798h-1.066v-4.797zM19.19 17.097h1.066v2.665H19.19v-2.665zM10.661 18.696h1.066v1.066h-1.066v-1.066zM7.463 18.163h1.066v1.599H7.463v-1.599z"/>
<path fill="#212121" style="fill:var(--color1, #212121)" d="M1.599 28.291h25.587a1.6 1.6 0 0 0 1.599-1.599V24.56a1.6 1.6 0 0 0-1.599-1.599h-.533V9.668L29.681 6.8a1.608 1.608 0 1 0-.746-.763L26.654 8.2V6.97a1.6 1.6 0 0 0-1.599-1.599H3.733A1.6 1.6 0 0 0 2.134 6.97v15.992h-.533a1.6 1.6 0 0 0-1.599 1.599v2.132a1.6 1.6 0 0 0 1.599 1.599zM30.384 4.837a.533.533 0 1 1 0 1.067.533.533 0 0 1 0-1.067zM3.198 6.969c0-.294.239-.533.533-.533h21.322c.294 0 .533.239.533.533v2.239l-1.066 1.013V8.035a.533.533 0 0 0-.533-.533H4.797a.533.533 0 0 0-.533.533v13.326c0 .294.239.533.533.533h19.19a.533.533 0 0 0 .533-.533v-9.674l1.066-1.01v12.284H3.198V6.969zm4.798 6.93a1.598 1.598 0 1 0 1.107 2.749l1.853.93a.532.532 0 0 0 .636-.123l3.939-4.431 3.872 2.901a.533.533 0 0 0 .686-.039l3.365-3.188v8.131H5.33V8.569h18.124v2.66l-3.771 3.572-3.904-2.927a.533.533 0 0 0-.718.072l-3.993 4.493-1.493-.746c.011-.064.018-.129.02-.193a1.6 1.6 0 0 0-1.599-1.599zm.533 1.599a.533.533 0 1 1-1.067 0 .533.533 0 0 1 1.067 0zm3.198 8.529h5.331v.533a.533.533 0 0 1-.533.533h-4.264a.533.533 0 0 1-.533-.533v-.533zm-10.661.533c0-.294.239-.533.533-.533h9.062v.533a1.6 1.6 0 0 0 1.599 1.599h4.264a1.6 1.6 0 0 0 1.599-1.599v-.533h9.062c.294 0 .533.239.533.533v2.132a.533.533 0 0 1-.533.533H1.598a.533.533 0 0 1-.533-.533V24.56z"/>
</symbol>
<symbol id="icon-krestik" viewBox="0 0 32 32">
<path d="M32 3.223l-3.223-3.223-12.777 12.777-12.777-12.777-3.223 3.223 12.777 12.777-12.777 12.777 3.223 3.223 12.777-12.777 12.777 12.777 3.223-3.223-12.777-12.777 12.777-12.777z"></path>
</symbol>
<symbol id="icon-line" viewBox="0 0 384 32">
<path fill="#2196f3" style="fill: var(--color1, #2196f3)" d="M16 0h352c8.837 0 16 7.163 16 16s-7.163 16-16 16h-352c-8.837 0-16-7.163-16-16s7.163-16 16-16z"></path>
</symbol>
<symbol id="icon-icon-send" viewBox="0 0 32 32">
<path fill="#fff" style="fill: var(--color1, #fff)" d="M32 0l-32 18 10.227 3.788 15.773-14.788-11.998 16.186 0.010 0.004-0.012-0.004v8.814l5.735-6.691 7.265 2.691 5-28z"></path>
</symbol>
<symbol id="icon-person-black" viewBox="0 0 32 32">
<path d="M16 16c2.947 0 5.333-2.387 5.333-5.333s-2.387-5.333-5.333-5.333c-2.947 0-5.333 2.387-5.333 5.333s2.387 5.333 5.333 5.333zM16 18.667c-3.56 0-10.667 1.787-10.667 5.333v1.333c0 0.733 0.6 1.333 1.333 1.333h18.667c0.733 0 1.333-0.6 1.333-1.333v-1.333c0-3.547-7.107-5.333-10.667-5.333z"></path>
</symbol>
<symbol id="icon-phone-black" viewBox="0 0 32 32">
<path d="M24.882 19.773l-3.268-0.373c-0.785-0.090-1.557 0.18-2.11 0.733l-2.367 2.367c-3.641-1.853-6.626-4.825-8.478-8.478l2.38-2.38c0.553-0.553 0.823-1.325 0.733-2.11l-0.373-3.242c-0.154-1.299-1.248-2.277-2.56-2.277h-2.226c-1.454 0-2.663 1.209-2.573 2.663 0.682 10.987 9.469 19.761 20.443 20.443 1.454 0.090 2.663-1.119 2.663-2.573v-2.226c0.013-1.299-0.965-2.393-2.264-2.547z"></path>
</symbol>
<symbol id="icon-email-black" viewBox="0 0 32 32">
<path d="M26.667 5.333h-21.333c-1.467 0-2.653 1.2-2.653 2.667l-0.013 16c0 1.467 1.2 2.667 2.667 2.667h21.333c1.467 0 2.667-1.2 2.667-2.667v-16c0-1.467-1.2-2.667-2.667-2.667zM26.133 11l-9.427 5.893c-0.427 0.267-0.987 0.267-1.413 0l-9.427-5.893c-0.333-0.213-0.533-0.573-0.533-0.96 0-0.893 0.973-1.427 1.733-0.96l8.933 5.587 8.933-5.587c0.76-0.467 1.733 0.067 1.733 0.96 0 0.387-0.2 0.747-0.533 0.96z"></path>
</symbol>
<symbol id="check" viewBox="0 0 42 32">
<path fill="#fff" style="fill: var(--color1, #fff); stroke: var(--color1, #fff)" stroke="#fff" stroke-linejoin="miter" stroke-linecap="butt" stroke-miterlimit="4" stroke-width="0.64" d="M6.263 15.205l-0.22-0.21-3.307 3.132 11.651 11.114 24.477-23.351-3.285-3.134-21.192 20.197-8.124-7.75z"></path>
</symbol>
</defs>
</svg>